<svg width="22" height="22" viewBox="0 0 22 22" fill="none" xmlns="http://www.w3.org/2000/svg">
<g id="heroicons-solid:x">
<g id="Group">
<path id="Vector" fill-rule="evenodd" clip-rule="evenodd" d="M4.72233 4.72254C4.92861 4.51632 5.20835 4.40047 5.50003 4.40047C5.79171 4.40047 6.07145 4.51632 6.27773 4.72254L11 9.44484L15.7223 4.72254C15.8238 4.61747 15.9452 4.53367 16.0794 4.47602C16.2136 4.41837 16.3579 4.38803 16.504 4.38676C16.6501 4.38549 16.7949 4.41332 16.9301 4.46863C17.0653 4.52394 17.1881 4.60562 17.2914 4.7089C17.3946 4.81218 17.4763 4.935 17.5316 5.07019C17.5869 5.20537 17.6148 5.35022 17.6135 5.49628C17.6122 5.64233 17.5819 5.78668 17.5242 5.92088C17.4666 6.05508 17.3828 6.17646 17.2777 6.27794L12.5554 11.0002L17.2777 15.7225C17.4781 15.93 17.589 16.2079 17.5865 16.4963C17.584 16.7847 17.4683 17.0606 17.2643 17.2645C17.0604 17.4685 16.7845 17.5842 16.4961 17.5867C16.2077 17.5892 15.9298 17.4783 15.7223 17.2779L11 12.5556L6.27773 17.2779C6.07027 17.4783 5.79241 17.5892 5.50399 17.5867C5.21558 17.5842 4.93968 17.4685 4.73573 17.2645C4.53178 17.0606 4.4161 16.7847 4.41359 16.4963C4.41109 16.2079 4.52196 15.93 4.72233 15.7225L9.44463 11.0002L4.72233 6.27794C4.51612 6.07165 4.40027 5.79192 4.40027 5.50024C4.40027 5.20856 4.51612 4.92882 4.72233 4.72254Z" fill="#373737"/>
</g>
</g>
</svg>
